<svg width="117" height="117" viewBox="0 0 117 117" style="">                                    <title>Motor</title>                                    <!-- Created with Vector Paint - http://www.vectorpaint.yaks.com/ https://chrome.google.com/webstore/detail/hnbpdiengicdefcjecjbnjnoifekhgdo -->                                    <rect id="backgroundrect" width="100%" height="100%" x="0" y="0" fill="#FFFFFF" stroke="none" class="" style=""/>                                <g class="currentLayer" style=""><title>Layer 1</title><path fill="#4a90d6" fill-opacity="1" stroke="#222222" stroke-opacity="1" stroke-width="2" stroke-dasharray="none" stroke-linejoin="round" stroke-linecap="butt" stroke-dashoffset="" fill-rule="nonzero" opacity="1" marker-start="" marker-mid="" marker-end="" d="M1,58.794403076171875 C1,27.302690368989545 26.73204419889504,1.794403076171875 58.5,1.794403076171875 C90.26795580110496,1.794403076171875 116,27.302690368989545 116,58.794403076171875 C116,90.2861157833542 90.26795580110496,115.79440307617188 58.5,115.79440307617188 C26.73204419889504,115.79440307617188 1,90.2861157833542 1,58.794403076171875 z" id="svg_1" class=""/><path fill="#4a90d6" fill-opacity="1" stroke="#222222" stroke-opacity="1" stroke-width="2" stroke-dasharray="none" stroke-linejoin="round" stroke-linecap="butt" stroke-dashoffset="" fill-rule="nonzero" opacity="1" marker-start="" marker-mid="" marker-end="" d="M1,58.794403076171875 C1,27.302690368989545 26.73204419889504,1.794403076171875 58.5,1.794403076171875 C90.26795580110496,1.794403076171875 116,27.302690368989545 116,58.794403076171875 C116,90.2861157833542 90.26795580110496,115.79440307617188 58.5,115.79440307617188 C26.73204419889504,115.79440307617188 1,90.2861157833542 1,58.794403076171875 z" class="" id="svg_8"/><path fill="#ffffff" fill-opacity="1" stroke="#222222" stroke-opacity="1" stroke-width="2" stroke-dasharray="none" stroke-linejoin="round" stroke-linecap="butt" stroke-dashoffset="" fill-rule="nonzero" opacity="1" marker-start="" marker-mid="" marker-end="" d="M43.499999046325684,58.500001430511475 C43.499999046325684,50.212708612831904 50.21270622864614,43.500001430511475 58.499999046325684,43.500001430511475 C66.78729186400523,43.500001430511475 73.49999904632568,50.212708612831904 73.49999904632568,58.500001430511475 C73.49999904632568,66.78729424819105 66.78729186400523,73.50000143051147 58.499999046325684,73.50000143051147 C50.21270622864614,73.50000143051147 43.499999046325684,66.78729424819105 43.499999046325684,58.500001430511475 z" id="svg_3" class=""/><path fill="#ffffff" fill-opacity="1" stroke="#ffffff" stroke-opacity="1" stroke-width="4" stroke-dasharray="none" stroke-linejoin="round" stroke-linecap="butt" stroke-dashoffset="" fill-rule="nonzero" opacity="1" marker-start="" marker-mid="" marker-end="" d="M58.00934590525338,2.0000021147351106 L58.99065422379971,41.25233485658984 " id="svg_4" class=""/></g></svg>